%TF.GenerationSoftware,KiCad,Pcbnew,10.0.1*%
%TF.CreationDate,2026-06-11T19:31:57-07:00*%
%TF.ProjectId,555_I_delay,3535355f-495f-4646-956c-61792e6b6963,rev?*%
%TF.SameCoordinates,Original*%
%TF.FileFunction,Legend,Top*%
%TF.FilePolarity,Positive*%
%FSLAX46Y46*%
G04 Gerber Fmt 4.6, Leading zero omitted, Abs format (unit mm)*
G04 Created by KiCad (PCBNEW 10.0.1) date 2026-06-11 19:31:57*
%MOMM*%
%LPD*%
G01*
G04 APERTURE LIST*
%ADD10C,0.254000*%
%ADD11C,0.200000*%
%ADD12C,0.150000*%
%ADD13C,0.100000*%
%ADD14C,0.120000*%
G04 APERTURE END LIST*
D10*
X86454724Y-38591844D02*
X86333771Y-38531368D01*
X86333771Y-38531368D02*
X86152343Y-38531368D01*
X86152343Y-38531368D02*
X85970914Y-38591844D01*
X85970914Y-38591844D02*
X85849962Y-38712796D01*
X85849962Y-38712796D02*
X85789485Y-38833749D01*
X85789485Y-38833749D02*
X85729009Y-39075653D01*
X85729009Y-39075653D02*
X85729009Y-39257082D01*
X85729009Y-39257082D02*
X85789485Y-39498987D01*
X85789485Y-39498987D02*
X85849962Y-39619939D01*
X85849962Y-39619939D02*
X85970914Y-39740892D01*
X85970914Y-39740892D02*
X86152343Y-39801368D01*
X86152343Y-39801368D02*
X86273295Y-39801368D01*
X86273295Y-39801368D02*
X86454724Y-39740892D01*
X86454724Y-39740892D02*
X86515200Y-39680415D01*
X86515200Y-39680415D02*
X86515200Y-39257082D01*
X86515200Y-39257082D02*
X86273295Y-39257082D01*
X87059485Y-39801368D02*
X87059485Y-38531368D01*
X87059485Y-38531368D02*
X87785200Y-39801368D01*
X87785200Y-39801368D02*
X87785200Y-38531368D01*
X88389961Y-39801368D02*
X88389961Y-38531368D01*
X88389961Y-38531368D02*
X88692342Y-38531368D01*
X88692342Y-38531368D02*
X88873771Y-38591844D01*
X88873771Y-38591844D02*
X88994723Y-38712796D01*
X88994723Y-38712796D02*
X89055200Y-38833749D01*
X89055200Y-38833749D02*
X89115676Y-39075653D01*
X89115676Y-39075653D02*
X89115676Y-39257082D01*
X89115676Y-39257082D02*
X89055200Y-39498987D01*
X89055200Y-39498987D02*
X88994723Y-39619939D01*
X88994723Y-39619939D02*
X88873771Y-39740892D01*
X88873771Y-39740892D02*
X88692342Y-39801368D01*
X88692342Y-39801368D02*
X88389961Y-39801368D01*
X115951390Y-51131368D02*
X116193295Y-51131368D01*
X116193295Y-51131368D02*
X116314247Y-51191844D01*
X116314247Y-51191844D02*
X116435200Y-51312796D01*
X116435200Y-51312796D02*
X116495676Y-51554701D01*
X116495676Y-51554701D02*
X116495676Y-51978034D01*
X116495676Y-51978034D02*
X116435200Y-52219939D01*
X116435200Y-52219939D02*
X116314247Y-52340892D01*
X116314247Y-52340892D02*
X116193295Y-52401368D01*
X116193295Y-52401368D02*
X115951390Y-52401368D01*
X115951390Y-52401368D02*
X115830438Y-52340892D01*
X115830438Y-52340892D02*
X115709485Y-52219939D01*
X115709485Y-52219939D02*
X115649009Y-51978034D01*
X115649009Y-51978034D02*
X115649009Y-51554701D01*
X115649009Y-51554701D02*
X115709485Y-51312796D01*
X115709485Y-51312796D02*
X115830438Y-51191844D01*
X115830438Y-51191844D02*
X115951390Y-51131368D01*
X117039961Y-51131368D02*
X117039961Y-52159463D01*
X117039961Y-52159463D02*
X117100438Y-52280415D01*
X117100438Y-52280415D02*
X117160914Y-52340892D01*
X117160914Y-52340892D02*
X117281866Y-52401368D01*
X117281866Y-52401368D02*
X117523771Y-52401368D01*
X117523771Y-52401368D02*
X117644723Y-52340892D01*
X117644723Y-52340892D02*
X117705200Y-52280415D01*
X117705200Y-52280415D02*
X117765676Y-52159463D01*
X117765676Y-52159463D02*
X117765676Y-51131368D01*
X118189009Y-51131368D02*
X118914723Y-51131368D01*
X118551866Y-52401368D02*
X118551866Y-51131368D01*
X89039485Y-60781368D02*
X89039485Y-59511368D01*
X89644247Y-60781368D02*
X89644247Y-59511368D01*
X89644247Y-59511368D02*
X90369962Y-60781368D01*
X90369962Y-60781368D02*
X90369962Y-59511368D01*
D11*
X86332000Y-59900000D02*
G75*
G02*
X82268000Y-59900000I-2032000J0D01*
G01*
X82268000Y-59900000D02*
G75*
G02*
X86332000Y-59900000I2032000J0D01*
G01*
X118232000Y-40720000D02*
G75*
G02*
X114168000Y-40720000I-2032000J0D01*
G01*
X114168000Y-40720000D02*
G75*
G02*
X118232000Y-40720000I2032000J0D01*
G01*
D12*
X106764761Y-38172438D02*
X106669523Y-38124819D01*
X106669523Y-38124819D02*
X106526666Y-38124819D01*
X106526666Y-38124819D02*
X106383809Y-38172438D01*
X106383809Y-38172438D02*
X106288571Y-38267676D01*
X106288571Y-38267676D02*
X106240952Y-38362914D01*
X106240952Y-38362914D02*
X106193333Y-38553390D01*
X106193333Y-38553390D02*
X106193333Y-38696247D01*
X106193333Y-38696247D02*
X106240952Y-38886723D01*
X106240952Y-38886723D02*
X106288571Y-38981961D01*
X106288571Y-38981961D02*
X106383809Y-39077200D01*
X106383809Y-39077200D02*
X106526666Y-39124819D01*
X106526666Y-39124819D02*
X106621904Y-39124819D01*
X106621904Y-39124819D02*
X106764761Y-39077200D01*
X106764761Y-39077200D02*
X106812380Y-39029580D01*
X106812380Y-39029580D02*
X106812380Y-38696247D01*
X106812380Y-38696247D02*
X106621904Y-38696247D01*
X107240952Y-39124819D02*
X107240952Y-38458152D01*
X107240952Y-38648628D02*
X107288571Y-38553390D01*
X107288571Y-38553390D02*
X107336190Y-38505771D01*
X107336190Y-38505771D02*
X107431428Y-38458152D01*
X107431428Y-38458152D02*
X107526666Y-38458152D01*
X108240952Y-39077200D02*
X108145714Y-39124819D01*
X108145714Y-39124819D02*
X107955238Y-39124819D01*
X107955238Y-39124819D02*
X107860000Y-39077200D01*
X107860000Y-39077200D02*
X107812381Y-38981961D01*
X107812381Y-38981961D02*
X107812381Y-38601009D01*
X107812381Y-38601009D02*
X107860000Y-38505771D01*
X107860000Y-38505771D02*
X107955238Y-38458152D01*
X107955238Y-38458152D02*
X108145714Y-38458152D01*
X108145714Y-38458152D02*
X108240952Y-38505771D01*
X108240952Y-38505771D02*
X108288571Y-38601009D01*
X108288571Y-38601009D02*
X108288571Y-38696247D01*
X108288571Y-38696247D02*
X107812381Y-38791485D01*
X109098095Y-39077200D02*
X109002857Y-39124819D01*
X109002857Y-39124819D02*
X108812381Y-39124819D01*
X108812381Y-39124819D02*
X108717143Y-39077200D01*
X108717143Y-39077200D02*
X108669524Y-38981961D01*
X108669524Y-38981961D02*
X108669524Y-38601009D01*
X108669524Y-38601009D02*
X108717143Y-38505771D01*
X108717143Y-38505771D02*
X108812381Y-38458152D01*
X108812381Y-38458152D02*
X109002857Y-38458152D01*
X109002857Y-38458152D02*
X109098095Y-38505771D01*
X109098095Y-38505771D02*
X109145714Y-38601009D01*
X109145714Y-38601009D02*
X109145714Y-38696247D01*
X109145714Y-38696247D02*
X108669524Y-38791485D01*
X109574286Y-38458152D02*
X109574286Y-39124819D01*
X109574286Y-38553390D02*
X109621905Y-38505771D01*
X109621905Y-38505771D02*
X109717143Y-38458152D01*
X109717143Y-38458152D02*
X109860000Y-38458152D01*
X109860000Y-38458152D02*
X109955238Y-38505771D01*
X109955238Y-38505771D02*
X110002857Y-38601009D01*
X110002857Y-38601009D02*
X110002857Y-39124819D01*
X111717143Y-39124819D02*
X111240953Y-39124819D01*
X111240953Y-39124819D02*
X111240953Y-38124819D01*
X112050477Y-38601009D02*
X112383810Y-38601009D01*
X112526667Y-39124819D02*
X112050477Y-39124819D01*
X112050477Y-39124819D02*
X112050477Y-38124819D01*
X112050477Y-38124819D02*
X112526667Y-38124819D01*
X112955239Y-39124819D02*
X112955239Y-38124819D01*
X112955239Y-38124819D02*
X113193334Y-38124819D01*
X113193334Y-38124819D02*
X113336191Y-38172438D01*
X113336191Y-38172438D02*
X113431429Y-38267676D01*
X113431429Y-38267676D02*
X113479048Y-38362914D01*
X113479048Y-38362914D02*
X113526667Y-38553390D01*
X113526667Y-38553390D02*
X113526667Y-38696247D01*
X113526667Y-38696247D02*
X113479048Y-38886723D01*
X113479048Y-38886723D02*
X113431429Y-38981961D01*
X113431429Y-38981961D02*
X113336191Y-39077200D01*
X113336191Y-39077200D02*
X113193334Y-39124819D01*
X113193334Y-39124819D02*
X112955239Y-39124819D01*
X106804819Y-60006666D02*
X106328628Y-60339999D01*
X106804819Y-60578094D02*
X105804819Y-60578094D01*
X105804819Y-60578094D02*
X105804819Y-60197142D01*
X105804819Y-60197142D02*
X105852438Y-60101904D01*
X105852438Y-60101904D02*
X105900057Y-60054285D01*
X105900057Y-60054285D02*
X105995295Y-60006666D01*
X105995295Y-60006666D02*
X106138152Y-60006666D01*
X106138152Y-60006666D02*
X106233390Y-60054285D01*
X106233390Y-60054285D02*
X106281009Y-60101904D01*
X106281009Y-60101904D02*
X106328628Y-60197142D01*
X106328628Y-60197142D02*
X106328628Y-60578094D01*
X105804819Y-59673332D02*
X105804819Y-59054285D01*
X105804819Y-59054285D02*
X106185771Y-59387618D01*
X106185771Y-59387618D02*
X106185771Y-59244761D01*
X106185771Y-59244761D02*
X106233390Y-59149523D01*
X106233390Y-59149523D02*
X106281009Y-59101904D01*
X106281009Y-59101904D02*
X106376247Y-59054285D01*
X106376247Y-59054285D02*
X106614342Y-59054285D01*
X106614342Y-59054285D02*
X106709580Y-59101904D01*
X106709580Y-59101904D02*
X106757200Y-59149523D01*
X106757200Y-59149523D02*
X106804819Y-59244761D01*
X106804819Y-59244761D02*
X106804819Y-59530475D01*
X106804819Y-59530475D02*
X106757200Y-59625713D01*
X106757200Y-59625713D02*
X106709580Y-59673332D01*
X94944819Y-47916666D02*
X94468628Y-48249999D01*
X94944819Y-48488094D02*
X93944819Y-48488094D01*
X93944819Y-48488094D02*
X93944819Y-48107142D01*
X93944819Y-48107142D02*
X93992438Y-48011904D01*
X93992438Y-48011904D02*
X94040057Y-47964285D01*
X94040057Y-47964285D02*
X94135295Y-47916666D01*
X94135295Y-47916666D02*
X94278152Y-47916666D01*
X94278152Y-47916666D02*
X94373390Y-47964285D01*
X94373390Y-47964285D02*
X94421009Y-48011904D01*
X94421009Y-48011904D02*
X94468628Y-48107142D01*
X94468628Y-48107142D02*
X94468628Y-48488094D01*
X94040057Y-47535713D02*
X93992438Y-47488094D01*
X93992438Y-47488094D02*
X93944819Y-47392856D01*
X93944819Y-47392856D02*
X93944819Y-47154761D01*
X93944819Y-47154761D02*
X93992438Y-47059523D01*
X93992438Y-47059523D02*
X94040057Y-47011904D01*
X94040057Y-47011904D02*
X94135295Y-46964285D01*
X94135295Y-46964285D02*
X94230533Y-46964285D01*
X94230533Y-46964285D02*
X94373390Y-47011904D01*
X94373390Y-47011904D02*
X94944819Y-47583332D01*
X94944819Y-47583332D02*
X94944819Y-46964285D01*
X98744819Y-47876666D02*
X98268628Y-48209999D01*
X98744819Y-48448094D02*
X97744819Y-48448094D01*
X97744819Y-48448094D02*
X97744819Y-48067142D01*
X97744819Y-48067142D02*
X97792438Y-47971904D01*
X97792438Y-47971904D02*
X97840057Y-47924285D01*
X97840057Y-47924285D02*
X97935295Y-47876666D01*
X97935295Y-47876666D02*
X98078152Y-47876666D01*
X98078152Y-47876666D02*
X98173390Y-47924285D01*
X98173390Y-47924285D02*
X98221009Y-47971904D01*
X98221009Y-47971904D02*
X98268628Y-48067142D01*
X98268628Y-48067142D02*
X98268628Y-48448094D01*
X98078152Y-47019523D02*
X98744819Y-47019523D01*
X97697200Y-47257618D02*
X98411485Y-47495713D01*
X98411485Y-47495713D02*
X98411485Y-46876666D01*
X99559580Y-60514166D02*
X99607200Y-60561785D01*
X99607200Y-60561785D02*
X99654819Y-60704642D01*
X99654819Y-60704642D02*
X99654819Y-60799880D01*
X99654819Y-60799880D02*
X99607200Y-60942737D01*
X99607200Y-60942737D02*
X99511961Y-61037975D01*
X99511961Y-61037975D02*
X99416723Y-61085594D01*
X99416723Y-61085594D02*
X99226247Y-61133213D01*
X99226247Y-61133213D02*
X99083390Y-61133213D01*
X99083390Y-61133213D02*
X98892914Y-61085594D01*
X98892914Y-61085594D02*
X98797676Y-61037975D01*
X98797676Y-61037975D02*
X98702438Y-60942737D01*
X98702438Y-60942737D02*
X98654819Y-60799880D01*
X98654819Y-60799880D02*
X98654819Y-60704642D01*
X98654819Y-60704642D02*
X98702438Y-60561785D01*
X98702438Y-60561785D02*
X98750057Y-60514166D01*
X98988152Y-59657023D02*
X99654819Y-59657023D01*
X98607200Y-59895118D02*
X99321485Y-60133213D01*
X99321485Y-60133213D02*
X99321485Y-59514166D01*
X91514819Y-47936666D02*
X91038628Y-48269999D01*
X91514819Y-48508094D02*
X90514819Y-48508094D01*
X90514819Y-48508094D02*
X90514819Y-48127142D01*
X90514819Y-48127142D02*
X90562438Y-48031904D01*
X90562438Y-48031904D02*
X90610057Y-47984285D01*
X90610057Y-47984285D02*
X90705295Y-47936666D01*
X90705295Y-47936666D02*
X90848152Y-47936666D01*
X90848152Y-47936666D02*
X90943390Y-47984285D01*
X90943390Y-47984285D02*
X90991009Y-48031904D01*
X90991009Y-48031904D02*
X91038628Y-48127142D01*
X91038628Y-48127142D02*
X91038628Y-48508094D01*
X91514819Y-46984285D02*
X91514819Y-47555713D01*
X91514819Y-47269999D02*
X90514819Y-47269999D01*
X90514819Y-47269999D02*
X90657676Y-47365237D01*
X90657676Y-47365237D02*
X90752914Y-47460475D01*
X90752914Y-47460475D02*
X90800533Y-47555713D01*
X113790475Y-44454819D02*
X113457142Y-43978628D01*
X113219047Y-44454819D02*
X113219047Y-43454819D01*
X113219047Y-43454819D02*
X113599999Y-43454819D01*
X113599999Y-43454819D02*
X113695237Y-43502438D01*
X113695237Y-43502438D02*
X113742856Y-43550057D01*
X113742856Y-43550057D02*
X113790475Y-43645295D01*
X113790475Y-43645295D02*
X113790475Y-43788152D01*
X113790475Y-43788152D02*
X113742856Y-43883390D01*
X113742856Y-43883390D02*
X113695237Y-43931009D01*
X113695237Y-43931009D02*
X113599999Y-43978628D01*
X113599999Y-43978628D02*
X113219047Y-43978628D01*
X114599999Y-44407200D02*
X114504761Y-44454819D01*
X114504761Y-44454819D02*
X114314285Y-44454819D01*
X114314285Y-44454819D02*
X114219047Y-44407200D01*
X114219047Y-44407200D02*
X114171428Y-44311961D01*
X114171428Y-44311961D02*
X114171428Y-43931009D01*
X114171428Y-43931009D02*
X114219047Y-43835771D01*
X114219047Y-43835771D02*
X114314285Y-43788152D01*
X114314285Y-43788152D02*
X114504761Y-43788152D01*
X114504761Y-43788152D02*
X114599999Y-43835771D01*
X114599999Y-43835771D02*
X114647618Y-43931009D01*
X114647618Y-43931009D02*
X114647618Y-44026247D01*
X114647618Y-44026247D02*
X114171428Y-44121485D01*
X115504761Y-44454819D02*
X115504761Y-43454819D01*
X115504761Y-44407200D02*
X115409523Y-44454819D01*
X115409523Y-44454819D02*
X115219047Y-44454819D01*
X115219047Y-44454819D02*
X115123809Y-44407200D01*
X115123809Y-44407200D02*
X115076190Y-44359580D01*
X115076190Y-44359580D02*
X115028571Y-44264342D01*
X115028571Y-44264342D02*
X115028571Y-43978628D01*
X115028571Y-43978628D02*
X115076190Y-43883390D01*
X115076190Y-43883390D02*
X115123809Y-43835771D01*
X115123809Y-43835771D02*
X115219047Y-43788152D01*
X115219047Y-43788152D02*
X115409523Y-43788152D01*
X115409523Y-43788152D02*
X115504761Y-43835771D01*
X117219047Y-44454819D02*
X116742857Y-44454819D01*
X116742857Y-44454819D02*
X116742857Y-43454819D01*
X117552381Y-43931009D02*
X117885714Y-43931009D01*
X118028571Y-44454819D02*
X117552381Y-44454819D01*
X117552381Y-44454819D02*
X117552381Y-43454819D01*
X117552381Y-43454819D02*
X118028571Y-43454819D01*
X118457143Y-44454819D02*
X118457143Y-43454819D01*
X118457143Y-43454819D02*
X118695238Y-43454819D01*
X118695238Y-43454819D02*
X118838095Y-43502438D01*
X118838095Y-43502438D02*
X118933333Y-43597676D01*
X118933333Y-43597676D02*
X118980952Y-43692914D01*
X118980952Y-43692914D02*
X119028571Y-43883390D01*
X119028571Y-43883390D02*
X119028571Y-44026247D01*
X119028571Y-44026247D02*
X118980952Y-44216723D01*
X118980952Y-44216723D02*
X118933333Y-44311961D01*
X118933333Y-44311961D02*
X118838095Y-44407200D01*
X118838095Y-44407200D02*
X118695238Y-44454819D01*
X118695238Y-44454819D02*
X118457143Y-44454819D01*
%TO.C,D1*%
D13*
X117179080Y-57570560D02*
X115578880Y-57570560D01*
X116378980Y-57570560D02*
X117179080Y-58721180D01*
X115629680Y-58721180D02*
X117179080Y-58721180D01*
D14*
X118530000Y-53510000D02*
X118530000Y-60920000D01*
X118530000Y-53510000D02*
X114230000Y-53510000D01*
X114230000Y-53510000D02*
X114230000Y-60920000D01*
D13*
X116378980Y-57570560D02*
X115629680Y-58721180D01*
%TO.C,U1*%
D14*
X107500000Y-45950000D02*
G75*
G02*
X105500000Y-45950000I-1000000J0D01*
G01*
X109150000Y-56230000D02*
X109150000Y-45950000D01*
X109150000Y-45950000D02*
X107500000Y-45950000D01*
X105500000Y-45950000D02*
X103850000Y-45950000D01*
X103850000Y-56230000D02*
X109150000Y-56230000D01*
X103850000Y-45950000D02*
X103850000Y-56230000D01*
%TO.C,F1*%
X89870000Y-56560000D02*
X89870000Y-40360000D01*
X89870000Y-40360000D02*
X82930000Y-40360000D01*
X82930000Y-56560000D02*
X89870000Y-56560000D01*
X82930000Y-40360000D02*
X82930000Y-56560000D01*
%TO.C,C2*%
X99840000Y-54900000D02*
G75*
G02*
X91600000Y-54900000I-4120000J0D01*
G01*
X91600000Y-54900000D02*
G75*
G02*
X99840000Y-54900000I4120000J0D01*
G01*
X99800000Y-54940000D02*
X91640000Y-54940000D01*
X99800000Y-54900000D02*
X91640000Y-54900000D01*
X99799000Y-54980000D02*
X91641000Y-54980000D01*
X99798000Y-55020000D02*
X91642000Y-55020000D01*
X99797000Y-55060000D02*
X91643000Y-55060000D01*
X99795000Y-55100000D02*
X91645000Y-55100000D01*
X99793000Y-55140000D02*
X91647000Y-55140000D01*
X99790000Y-55180000D02*
X91650000Y-55180000D01*
X99788000Y-55220000D02*
X91652000Y-55220000D01*
X99784000Y-55260000D02*
X91656000Y-55260000D01*
X99781000Y-55300000D02*
X91659000Y-55300000D01*
X99776000Y-55340000D02*
X91664000Y-55340000D01*
X99772000Y-55380000D02*
X91668000Y-55380000D01*
X99767000Y-55420000D02*
X91673000Y-55420000D01*
X99762000Y-55460000D02*
X91678000Y-55460000D01*
X99756000Y-55500000D02*
X91684000Y-55500000D01*
X99750000Y-55540000D02*
X91690000Y-55540000D01*
X99743000Y-55580000D02*
X91697000Y-55580000D01*
X99737000Y-55620000D02*
X91703000Y-55620000D01*
X99729000Y-55660000D02*
X91711000Y-55660000D01*
X99722000Y-55700000D02*
X91718000Y-55700000D01*
X99713000Y-55740000D02*
X91727000Y-55740000D01*
X99705000Y-55780000D02*
X96760000Y-55780000D01*
X99696000Y-55820000D02*
X96760000Y-55820000D01*
X99687000Y-55860000D02*
X96760000Y-55860000D01*
X99677000Y-55900000D02*
X96760000Y-55900000D01*
X99667000Y-55940000D02*
X96760000Y-55940000D01*
X99656000Y-55980000D02*
X96760000Y-55980000D01*
X99645000Y-56020000D02*
X96760000Y-56020000D01*
X99633000Y-56060000D02*
X96760000Y-56060000D01*
X99621000Y-56100000D02*
X96760000Y-56100000D01*
X99609000Y-56140000D02*
X96760000Y-56140000D01*
X99596000Y-56180000D02*
X96760000Y-56180000D01*
X99583000Y-56220000D02*
X96760000Y-56220000D01*
X99569000Y-56260000D02*
X96760000Y-56260000D01*
X99555000Y-56300000D02*
X96760000Y-56300000D01*
X99540000Y-56340000D02*
X96760000Y-56340000D01*
X99525000Y-56380000D02*
X96760000Y-56380000D01*
X99509000Y-56420000D02*
X96760000Y-56420000D01*
X99493000Y-56460000D02*
X96760000Y-56460000D01*
X99477000Y-56500000D02*
X96760000Y-56500000D01*
X99460000Y-56540000D02*
X96760000Y-56540000D01*
X99442000Y-56580000D02*
X96760000Y-56580000D01*
X99424000Y-56620000D02*
X96760000Y-56620000D01*
X99405000Y-56660000D02*
X96760000Y-56660000D01*
X99386000Y-56700000D02*
X96760000Y-56700000D01*
X99366000Y-56740000D02*
X96760000Y-56740000D01*
X99346000Y-56780000D02*
X96760000Y-56780000D01*
X99325000Y-56820000D02*
X96760000Y-56820000D01*
X99304000Y-56860000D02*
X96760000Y-56860000D01*
X99282000Y-56900000D02*
X96760000Y-56900000D01*
X99259000Y-56940000D02*
X96760000Y-56940000D01*
X99236000Y-56980000D02*
X96760000Y-56980000D01*
X99213000Y-57020000D02*
X96760000Y-57020000D01*
X99188000Y-57060000D02*
X96760000Y-57060000D01*
X99163000Y-57100000D02*
X96760000Y-57100000D01*
X99138000Y-57140000D02*
X96760000Y-57140000D01*
X99112000Y-57180000D02*
X96760000Y-57180000D01*
X99085000Y-57220000D02*
X96760000Y-57220000D01*
X99057000Y-57260000D02*
X96760000Y-57260000D01*
X99029000Y-57300000D02*
X96760000Y-57300000D01*
X99000000Y-57340000D02*
X96760000Y-57340000D01*
X98970000Y-57380000D02*
X96760000Y-57380000D01*
X98939000Y-57420000D02*
X96760000Y-57420000D01*
X98908000Y-57460000D02*
X96760000Y-57460000D01*
X98876000Y-57500000D02*
X96760000Y-57500000D01*
X98843000Y-57540000D02*
X96760000Y-57540000D01*
X98809000Y-57580000D02*
X96760000Y-57580000D01*
X98775000Y-57620000D02*
X96760000Y-57620000D01*
X98739000Y-57660000D02*
X96760000Y-57660000D01*
X98702000Y-57700000D02*
X96760000Y-57700000D01*
X98665000Y-57740000D02*
X96760000Y-57740000D01*
X98626000Y-57780000D02*
X96760000Y-57780000D01*
X98587000Y-57820000D02*
X96760000Y-57820000D01*
X98546000Y-57860000D02*
X92894000Y-57860000D01*
X98504000Y-57900000D02*
X92936000Y-57900000D01*
X98461000Y-57940000D02*
X92979000Y-57940000D01*
X98435000Y-53500000D02*
X97635000Y-53500000D01*
X98416000Y-57980000D02*
X93024000Y-57980000D01*
X98371000Y-58020000D02*
X93069000Y-58020000D01*
X98324000Y-58060000D02*
X93116000Y-58060000D01*
X98275000Y-58100000D02*
X93165000Y-58100000D01*
X98225000Y-58140000D02*
X93215000Y-58140000D01*
X98173000Y-58180000D02*
X93267000Y-58180000D01*
X98120000Y-58220000D02*
X93320000Y-58220000D01*
X98064000Y-58260000D02*
X93376000Y-58260000D01*
X98035000Y-53100000D02*
X98035000Y-53900000D01*
X98007000Y-58300000D02*
X93433000Y-58300000D01*
X97947000Y-58340000D02*
X93493000Y-58340000D01*
X97885000Y-58380000D02*
X93555000Y-58380000D01*
X97821000Y-58420000D02*
X93619000Y-58420000D01*
X97754000Y-58460000D02*
X93686000Y-58460000D01*
X97684000Y-58500000D02*
X93756000Y-58500000D01*
X97610000Y-58540000D02*
X93830000Y-58540000D01*
X97533000Y-58580000D02*
X93907000Y-58580000D01*
X97451000Y-58620000D02*
X93989000Y-58620000D01*
X97364000Y-58660000D02*
X94076000Y-58660000D01*
X97272000Y-58700000D02*
X94168000Y-58700000D01*
X97173000Y-58740000D02*
X94267000Y-58740000D01*
X97066000Y-58780000D02*
X94374000Y-58780000D01*
X96948000Y-58820000D02*
X94492000Y-58820000D01*
X96817000Y-58860000D02*
X94623000Y-58860000D01*
X96667000Y-58900000D02*
X94773000Y-58900000D01*
X96488000Y-58940000D02*
X94952000Y-58940000D01*
X96253000Y-58980000D02*
X95187000Y-58980000D01*
X94680000Y-57820000D02*
X92853000Y-57820000D01*
X94680000Y-57780000D02*
X92814000Y-57780000D01*
X94680000Y-57740000D02*
X92775000Y-57740000D01*
X94680000Y-57700000D02*
X92738000Y-57700000D01*
X94680000Y-57660000D02*
X92701000Y-57660000D01*
X94680000Y-57620000D02*
X92665000Y-57620000D01*
X94680000Y-57580000D02*
X92631000Y-57580000D01*
X94680000Y-57540000D02*
X92597000Y-57540000D01*
X94680000Y-57500000D02*
X92564000Y-57500000D01*
X94680000Y-57460000D02*
X92532000Y-57460000D01*
X94680000Y-57420000D02*
X92501000Y-57420000D01*
X94680000Y-57380000D02*
X92470000Y-57380000D01*
X94680000Y-57340000D02*
X92440000Y-57340000D01*
X94680000Y-57300000D02*
X92411000Y-57300000D01*
X94680000Y-57260000D02*
X92383000Y-57260000D01*
X94680000Y-57220000D02*
X92355000Y-57220000D01*
X94680000Y-57180000D02*
X92328000Y-57180000D01*
X94680000Y-57140000D02*
X92302000Y-57140000D01*
X94680000Y-57100000D02*
X92277000Y-57100000D01*
X94680000Y-57060000D02*
X92252000Y-57060000D01*
X94680000Y-57020000D02*
X92227000Y-57020000D01*
X94680000Y-56980000D02*
X92204000Y-56980000D01*
X94680000Y-56940000D02*
X92181000Y-56940000D01*
X94680000Y-56900000D02*
X92158000Y-56900000D01*
X94680000Y-56860000D02*
X92136000Y-56860000D01*
X94680000Y-56820000D02*
X92115000Y-56820000D01*
X94680000Y-56780000D02*
X92094000Y-56780000D01*
X94680000Y-56740000D02*
X92074000Y-56740000D01*
X94680000Y-56700000D02*
X92054000Y-56700000D01*
X94680000Y-56660000D02*
X92035000Y-56660000D01*
X94680000Y-56620000D02*
X92016000Y-56620000D01*
X94680000Y-56580000D02*
X91998000Y-56580000D01*
X94680000Y-56540000D02*
X91980000Y-56540000D01*
X94680000Y-56500000D02*
X91963000Y-56500000D01*
X94680000Y-56460000D02*
X91947000Y-56460000D01*
X94680000Y-56420000D02*
X91931000Y-56420000D01*
X94680000Y-56380000D02*
X91915000Y-56380000D01*
X94680000Y-56340000D02*
X91900000Y-56340000D01*
X94680000Y-56300000D02*
X91885000Y-56300000D01*
X94680000Y-56260000D02*
X91871000Y-56260000D01*
X94680000Y-56220000D02*
X91857000Y-56220000D01*
X94680000Y-56180000D02*
X91844000Y-56180000D01*
X94680000Y-56140000D02*
X91831000Y-56140000D01*
X94680000Y-56100000D02*
X91819000Y-56100000D01*
X94680000Y-56060000D02*
X91807000Y-56060000D01*
X94680000Y-56020000D02*
X91795000Y-56020000D01*
X94680000Y-55980000D02*
X91784000Y-55980000D01*
X94680000Y-55940000D02*
X91773000Y-55940000D01*
X94680000Y-55900000D02*
X91763000Y-55900000D01*
X94680000Y-55860000D02*
X91753000Y-55860000D01*
X94680000Y-55820000D02*
X91744000Y-55820000D01*
X94680000Y-55780000D02*
X91735000Y-55780000D01*
%TO.C,D3*%
X111420000Y-42865516D02*
G75*
G02*
X108188563Y-42710000I-1560000J1235516D01*
G01*
X110900961Y-42710000D02*
G75*
G02*
X108819039Y-42710000I-1040961J1080000D01*
G01*
X108819039Y-40550000D02*
G75*
G02*
X110900961Y-40550000I1040961J-1080000D01*
G01*
X108188563Y-40550000D02*
G75*
G02*
X111420000Y-40394484I1671437J-1080000D01*
G01*
X111420000Y-42866000D02*
X111420000Y-42710000D01*
X111420000Y-40550000D02*
X111420000Y-40394000D01*
%TO.C,R3*%
X105430000Y-59112936D02*
X105430000Y-60567064D01*
X103610000Y-59112936D02*
X103610000Y-60567064D01*
%TO.C,R2*%
X97230000Y-48477064D02*
X97230000Y-47022936D01*
X95410000Y-48477064D02*
X95410000Y-47022936D01*
%TO.C,R4*%
X101100000Y-46932936D02*
X101100000Y-48387064D01*
X99280000Y-46932936D02*
X99280000Y-48387064D01*
%TO.C,Q1*%
X96385000Y-38275000D02*
X96045000Y-37805000D01*
X96725000Y-37805000D01*
X96385000Y-38275000D01*
G36*
X96385000Y-38275000D02*
G01*
X96045000Y-37805000D01*
X96725000Y-37805000D01*
X96385000Y-38275000D01*
G37*
X104535000Y-44865000D02*
X98115000Y-44865000D01*
X104535000Y-37965000D02*
X98115000Y-37965000D01*
X98115000Y-44865000D02*
X98115000Y-44595000D01*
X98115000Y-37965000D02*
X98115000Y-38235000D01*
%TO.C,C4*%
X101615000Y-60608752D02*
X101615000Y-60086248D01*
X100145000Y-60608752D02*
X100145000Y-60086248D01*
%TO.C,R1*%
X93650000Y-47062936D02*
X93650000Y-48517064D01*
X91830000Y-47062936D02*
X91830000Y-48517064D01*
%TO.C,D4*%
X117660000Y-48195516D02*
G75*
G02*
X114428563Y-48040000I-1560000J1235516D01*
G01*
X117140961Y-48040000D02*
G75*
G02*
X115059039Y-48040000I-1040961J1080000D01*
G01*
X115059039Y-45880000D02*
G75*
G02*
X117140961Y-45880000I1040961J-1080000D01*
G01*
X114428563Y-45880000D02*
G75*
G02*
X117660000Y-45724484I1671437J-1080000D01*
G01*
X117660000Y-48196000D02*
X117660000Y-48040000D01*
X117660000Y-45880000D02*
X117660000Y-45724000D01*
%TD*%
M02*
